<?xml version="1.0" encoding="utf-8"?>
<!-- Generator: Adobe Illustrator 21.0.0, SVG Export Plug-In . SVG Version: 6.00 Build 0)  -->
<svg version="1.1" id="Layer_2" xmlns="http://www.w3.org/2000/svg" xmlns:xlink="http://www.w3.org/1999/xlink" x="0px" y="0px"
	 viewBox="0 0 148.6 258" style="enable-background:new 0 0 148.6 258;" xml:space="preserve">
<style type="text/css">
	.st0{fill:#3B93A6;}
	.st1{fill:#2E7E90;}
	.st2{fill:#2C7D8F;}
	.st3{fill:#4698AA;}
	.st4{fill:#2D899D;}
	.st5{fill:#2D869A;}
	.st6{fill:#3791A5;}
	.st7{fill:#4396A9;}
	.st8{fill:#338FA3;}
	.st9{fill:#2D8295;}
	.st10{fill:#2B8396;}
	.st11{fill:#2D8093;}
	.st12{fill:#4094A7;}
	.st13{fill:#3892A6;}
	.st14{fill:#2E879B;}
	.st15{fill:#328EA2;}
</style>
<g>
	<polygon class="st0" points="49.2,129 99.4,129 74.9,86.3 	"/>
	<polygon class="st1" points="24.5,86.3 0,129 49.2,129 	"/>
	<polygon class="st2" points="0,42.3 0,86.3 24.5,86.3 	"/>
	<polygon class="st2" points="148.6,86.3 148.6,42.3 125.2,86.3 	"/>
	<polygon class="st3" points="99.4,129 148.6,129 125.2,86.3 	"/>
	<polygon class="st4" points="99.4,42.3 74.9,0 49.2,42.3 	"/>
	<polygon class="st5" points="24.5,0 0,42.3 49.2,42.3 	"/>
	<polygon class="st6" points="99.4,42.3 148.6,42.3 125.2,0 	"/>
	<polygon class="st7" points="74.9,86.3 99.4,42.3 49.2,42.3 	"/>
	<polygon class="st5" points="125.2,0 74.9,0 99.4,42.3 	"/>
	<polygon class="st0" points="125.2,0 148.6,42.3 148.6,0 	"/>
	<polygon class="st8" points="74.9,0 24.5,0 49.2,42.3 	"/>
	<polygon class="st9" points="99.4,129 125.2,86.3 74.9,86.3 	"/>
	<polygon class="st10" points="49.2,129 74.9,86.3 24.5,86.3 	"/>
	<polygon class="st11" points="99.4,215.8 124.2,171.8 73.7,171.8 	"/>
	<polygon class="st12" points="49.2,215.8 73.7,171.8 24.5,171.8 	"/>
	<polygon class="st0" points="0,0 0,42.3 24.5,0 	"/>
	<polygon class="st4" points="125.2,86.3 148.6,129 148.6,86.3 	"/>
	<polygon class="st4" points="0,86.3 0,129 24.5,86.3 	"/>
	<polygon class="st13" points="125.2,86.3 148.6,42.3 99.4,42.3 	"/>
	<polygon class="st0" points="49.2,42.3 0,42.3 24.5,86.3 	"/>
	<polygon class="st7" points="99.4,129 49.2,129 73.7,171.8 	"/>
	<polygon class="st8" points="124.2,171.8 148.6,129 99.4,129 	"/>
	<polygon class="st9" points="148.6,215.8 148.6,171.8 124.2,171.8 	"/>
	<polygon class="st9" points="0,171.8 0,215.8 24.5,171.8 	"/>
	<polygon class="st14" points="49.2,129 0,129 24.5,171.8 	"/>
	<polygon class="st7" points="49.2,215.8 73.7,258 99.4,215.8 	"/>
	<polygon class="st2" points="124.2,258 148.6,215.8 99.4,215.8 	"/>
	<polygon class="st11" points="49.2,215.8 0,215.8 23.4,258 	"/>
	<polygon class="st4" points="73.7,171.8 49.2,215.8 99.4,215.8 	"/>
	<polygon class="st6" points="23.4,258 73.7,258 49.2,215.8 	"/>
	<polygon class="st15" points="23.4,258 0,215.8 0,258 	"/>
	<polygon class="st2" points="73.7,258 124.2,258 99.4,215.8 	"/>
	<polygon class="st0" points="49.2,129 24.5,171.8 73.7,171.8 	"/>
	<polygon class="st2" points="99.4,129 73.7,171.8 124.2,171.8 	"/>
	<polygon class="st9" points="49.2,42.3 24.5,86.3 74.9,86.3 	"/>
	<polygon class="st3" points="99.4,42.3 74.9,86.3 125.2,86.3 	"/>
	<polygon class="st15" points="148.6,258 148.6,215.8 124.2,258 	"/>
	<polygon class="st0" points="24.5,171.8 0,129 0,171.8 	"/>
	<polygon class="st0" points="148.6,171.8 148.6,129 124.2,171.8 	"/>
	<polygon class="st15" points="24.5,171.8 0,215.8 49.2,215.8 	"/>
	<polygon class="st2" points="99.4,215.8 148.6,215.8 124.2,171.8 	"/>
</g>
</svg>
