<?xml version="1.0" encoding="utf-8"?>
<!-- Generator: Adobe Illustrator 21.0.0, SVG Export Plug-In . SVG Version: 6.00 Build 0)  -->
<svg version="1.1" id="Layer_1" xmlns="http://www.w3.org/2000/svg" xmlns:xlink="http://www.w3.org/1999/xlink" x="0px" y="0px"
	 viewBox="0 0 606.1 127" style="enable-background:new 0 0 606.1 127;" xml:space="preserve">
<style type="text/css">
	.st0{fill:#FFFFFF;stroke:#E6E7E8;stroke-miterlimit:10;}
</style>
<g>
	<path class="st0" d="M41.2,35.6c0,1.4,0.6,2.7,1.8,3.8c1.2,1.2,2.7,2.3,4.6,3.5c1.8,1.2,3.8,2.4,6,3.6c2.2,1.3,4.2,2.7,6,4.3
		c1.8,1.6,3.3,3.4,4.6,5.5c1.2,2.1,1.8,4.5,1.8,7.3v12c0,2.7-0.5,5-1.6,7c-1,2-2.4,3.6-4.2,4.9c-1.7,1.3-3.8,2.3-6.1,2.9
		c-2.3,0.6-4.8,0.9-7.3,0.9c-2.6,0-5-0.3-7.3-0.9c-2.3-0.6-4.3-1.6-6-2.9c-1.7-1.3-3.1-2.9-4.1-4.9c-1-2-1.5-4.3-1.5-7v-10h6.5
		c1.9,0,3.3,0.6,4.2,1.7c0.9,1.2,1.4,2.5,1.4,4.1v5.2c0,1.1,0.7,2.1,2,2.9c1.4,0.8,3,1.3,4.8,1.3c0.9,0,1.8-0.1,2.6-0.4
		c0.8-0.3,1.6-0.6,2.2-1.1c0.6-0.5,1.1-0.9,1.5-1.5c0.3-0.5,0.5-1,0.5-1.5V65.1c0-2.3-0.6-4.2-1.8-5.7c-1.2-1.5-2.8-2.8-4.6-4
		c-1.9-1.2-3.8-2.3-6-3.3c-2.1-1-4.1-2.3-6-3.8c-1.9-1.5-3.4-3.3-4.6-5.4c-1.2-2.1-1.8-4.8-1.8-8.1l0.1-7.8c0-2.8,0.5-5.2,1.4-7.2
		c0.9-2,2.2-3.6,3.8-4.9c1.6-1.3,3.5-2.2,5.7-2.8c2.2-0.6,4.5-0.9,7.1-0.9c2.6,0,5,0.3,7.2,1c2.2,0.7,4.1,1.6,5.8,2.9
		c1.6,1.3,2.9,2.9,3.8,4.9c0.9,2,1.4,4.3,1.4,7v9.8h-6.2c-1.7,0-3.2-0.7-4.4-2.1c-1.2-1.4-1.8-2.9-1.8-4.6v-3.2
		c0-1.5-0.6-2.6-1.9-3.4c-1.3-0.8-2.6-1.2-4-1.2c-1.5,0-2.7,0.4-3.8,1.3c-1.1,0.8-1.6,1.8-1.6,2.8V35.6z"/>
	<path class="st0" d="M108.7,79.4c0.8,0.4,1.6,1,2.4,1.9c0.8,0.9,1.3,2.1,1.3,3.7v5.6h-2.4h-6.5c-1.7,0-3-0.4-3.7-1.1
		s-1.5-1.9-2.3-3.5c0-0.1-0.1-0.3-0.4-0.8c-0.3-0.5-0.6-1.1-1-1.9c-0.4-0.8-0.8-1.7-1.3-2.7c-0.5-1-1-2-1.5-3
		c-1.2-2.4-2.5-5.1-4-8.1l-2.5,3.5v5.4c0,0.7,0.1,1.2,0.3,1.5c0.2,0.3,0.5,0.6,0.8,0.8c0.6,0.4,1,0.9,1.4,1.7
		c0.4,0.8,0.6,1.8,0.6,3.1v5.1H71.2v-5.2c0-1.3,0.2-2.4,0.6-3.1c0.4-0.8,0.9-1.3,1.5-1.7c0.3-0.3,0.6-0.6,0.8-0.8
		c0.2-0.3,0.3-0.8,0.3-1.5V24.7c0-0.6-0.1-1-0.4-1.4c-0.2-0.3-0.5-0.7-0.9-0.9c-0.6-0.3-1.1-0.9-1.6-1.7c-0.5-0.8-0.7-1.7-0.7-2.9
		v-5.7h13.3c0.8,0,1.5,0.2,1.9,0.5c0.5,0.3,0.7,1,0.7,1.9v39.1c0.1,0,0.6-0.7,1.6-2c1-1.3,2.1-2.8,3.4-4.4c1.4-1.9,3-4.1,4.9-6.5
		c0.8-0.8,1.6-1.4,2.1-1.9c0.6-0.5,1.3-0.7,2.3-0.7h6.7h2.4v6c0,1.6-0.5,2.8-1.6,3.6c-1,0.8-2,1.3-2.7,1.6c-0.6,0.1-0.8,0.2-0.8,0.3
		c0,0.1-0.3,0.4-0.8,0.9l-6.7,8.6c1,2.4,2.1,4.7,3.2,7c1,2,2,4,3,6c1,2.1,1.9,3.8,2.8,5.3C107.2,78.4,107.9,79.1,108.7,79.4z"/>
	<path class="st0" d="M128.9,66.4v9.5c0,1.4,0.5,2.5,1.6,3.3c1,0.8,2.4,1.2,4,1.2c1.6,0,2.9-0.4,4-1.3c1-0.8,1.6-1.6,1.6-2.2v-1.3
		c0-1.6,0.4-3,1.3-4.1c0.8-1.2,2.2-1.7,4.1-1.7h6.8v6.9c0,2.3-0.5,4.3-1.4,6.1c-0.9,1.7-2.1,3.2-3.7,4.4c-1.6,1.2-3.4,2.1-5.6,2.7
		c-2.2,0.6-4.5,0.9-7,0.9c-2.6,0-5-0.4-7.2-1.2c-2.2-0.8-4.1-1.9-5.7-3.3c-1.6-1.4-2.8-3.2-3.7-5.3c-0.9-2.1-1.4-4.5-1.4-7.1V54.3
		c0-2.7,0.5-5,1.4-7.1c0.9-2.1,2.1-3.9,3.7-5.3c1.6-1.4,3.5-2.5,5.7-3.2c2.2-0.7,4.6-1.1,7.2-1.1c2.6,0,5,0.4,7.1,1.1
		c2.2,0.7,4,1.8,5.6,3.2c1.6,1.4,2.8,3.2,3.7,5.3c0.9,2.1,1.3,4.5,1.3,7.1v6.8c0,3.5-1.8,5.2-5.3,5.2H128.9z M128.9,58.1h10.8v-4.2
		c0-1.3-0.2-2.3-0.6-3c-0.4-0.8-0.9-1.4-1.5-1.8c-0.6-0.5-1.2-0.8-1.8-0.9c-0.6-0.1-1.1-0.2-1.5-0.2c-0.4,0-0.8,0.1-1.5,0.3
		c-0.6,0.2-1.2,0.5-1.8,0.9c-0.6,0.4-1,1-1.5,1.8c-0.4,0.8-0.6,1.8-0.6,3V58.1z"/>
	<path class="st0" d="M179.2,80.6c0.4,0,0.8,0,1.1,0.1c0.3,0,0.6,0.2,0.7,0.4c0.2,0.2,0.3,0.6,0.4,1.2c0.1,0.6,0.2,1.4,0.2,2.4v2.1
		c0,2-0.7,3.2-2,3.6c-2.9,0.6-5.4,0.7-7.5,0.3c-2.1-0.5-3.9-1.2-5.4-2.4c-1.5-1.1-2.6-2.5-3.3-4.1c-0.7-1.6-1.1-3.2-1.1-4.9V48.4
		h-5.2v-4.6c0-2.2,0.4-3.8,1.1-4.6s2.1-1.3,4.1-1.3v-4.2v-7v0.6c0-4.6,1-7.8,3-9.5c2-1.7,5.2-2.6,9.5-2.6v11.4v7V38h5.3v3.6
		c0,1.5-0.1,2.7-0.3,3.6c-0.2,0.9-0.5,1.6-0.9,2.1c-0.4,0.5-1,0.8-1.7,1c-0.7,0.2-1.5,0.3-2.5,0.3v27.3c0,1.4,0.3,2.6,0.8,3.6
		C176.2,80.4,177.4,80.8,179.2,80.6z"/>
	<path class="st0" d="M209.9,56.4c-0.9-1.1-1.4-2.4-1.4-3.8c0-1.5-0.6-2.6-1.7-3.2c-1.1-0.6-2.1-0.9-3-0.9c-0.4,0-0.9,0.1-1.5,0.2
		c-0.6,0.1-1.2,0.4-1.7,0.7c-0.5,0.3-1,0.7-1.3,1.3c-0.4,0.5-0.5,1.2-0.5,2v22.4c0,1.1,0.2,2,0.5,2.7c0.3,0.7,0.7,1.2,1.3,1.6
		c0.5,0.4,1.1,0.6,1.6,0.7c0.6,0.1,1.1,0.2,1.7,0.2c1,0,2.1-0.3,3.3-0.9c1.2-0.6,1.7-1.5,1.7-2.8v-0.9c0-1.6,0.5-3,1.4-4.1
		c0.9-1.2,2.4-1.7,4.2-1.7h6.5v6.1c0,2.2-0.4,4.3-1.3,6.2c-0.8,1.9-2,3.5-3.6,4.8c-1.5,1.3-3.4,2.4-5.4,3.1s-4.4,1.1-6.9,1.1
		c-5.2,0-9.4-1.4-12.6-4.3c-3.2-2.9-4.9-7-4.9-12.4V54.5c0-5.4,1.6-9.5,4.9-12.5c3.2-2.9,7.5-4.4,12.6-4.4c2.5,0,4.8,0.4,7,1.3
		c2.1,0.8,3.9,2,5.4,3.4c1.5,1.4,2.7,3,3.5,4.8c0.8,1.8,1.3,3.6,1.3,5.5V58h-6.8C212.2,58,210.8,57.4,209.9,56.4z"/>
	<path class="st0" d="M267.6,80.4c1.1,0.8,1.7,2.4,1.7,4.9v5.1h-11.6c-3,0-4.5-2.2-4.5-6.5V55.4c0-1.5-0.3-2.6-0.8-3.5
		c-0.5-0.8-1.2-1.5-1.9-1.9c-0.8-0.4-1.6-0.7-2.5-0.7c-0.9-0.1-1.7,0-2.4,0.1c-1.3,0.2-2.2,0.6-2.8,1.2c-0.6,0.6-0.9,0.8-0.9,0.7
		v26.9c0,0.7,0.1,1.2,0.3,1.5c0.2,0.3,0.4,0.5,0.8,0.7c0.6,0.4,1.1,0.9,1.6,1.7c0.5,0.8,0.8,1.9,0.8,3.2l-0.1,5.1h-19.4v-5.2
		c0-1.3,0.3-2.4,0.8-3.1c0.5-0.8,1.1-1.4,1.6-1.8c0.3-0.2,0.6-0.5,0.8-0.7c0.2-0.3,0.3-0.8,0.3-1.5V24.6c0-1-0.4-1.7-1.2-2.2
		c-0.6-0.4-1.1-1-1.6-1.7s-0.8-1.7-0.8-3v-5.6h13.8c1.5,0,2.2,0.8,2.2,2.5v25.3c0.5-0.3,1.1-0.7,1.9-0.9c0.6-0.3,1.5-0.5,2.5-0.7
		s2.3-0.3,3.8-0.3c5.4,0,9.3,1.5,11.7,4.4c2.4,2.9,3.7,7.1,3.7,12.5v23.6c0.1,0.6,0.4,1.1,0.9,1.4C266.9,79.9,267.3,80.2,267.6,80.4
		z"/>
	<path class="st0" d="M310.4,38.1v5.6c0,1.4-0.2,2.5-0.6,3.2c-0.4,0.8-0.8,1.3-1.3,1.7c-0.2,0.1-0.5,0.5-0.7,1
		c-0.1,0.3-0.2,0.5-0.3,0.7c-0.5,1.9-1,4.4-1.6,7.5c-0.6,3.1-1.2,6.6-1.9,10.4c-0.7,3.8-1.4,7.7-2.1,11.8c-0.7,4.1-1.5,8.2-2.2,12.2
		s-1.5,7.7-2.3,11.3c-0.8,3.5-1.5,6.5-2.2,9.1c-0.4,1.3-0.9,2.4-1.5,3.2c-0.7,0.8-1.6,1.2-2.8,1.2H283h-2v-6.5
		c0-2.2,0.9-3.7,2.7-4.7c0.6-0.3,1-0.5,1.3-0.6c0.3-0.1,0.5-0.5,0.7-0.9l3-13.7h-4.4c-1.6,0-2.6-0.9-2.9-2.6c-0.3-1.4-0.6-3.2-1-5.5
		c-0.4-2.3-0.9-4.7-1.4-7.3c-0.5-2.6-1-5.2-1.4-7.8c-0.5-2.6-0.9-5-1.3-7.2s-0.8-4-1-5.5c-0.2-1.5-0.4-2.3-0.5-2.5
		c-0.4-1.7-0.9-2.9-1.6-3.4c-0.6-0.3-1-0.9-1.4-1.7c-0.4-0.8-0.6-1.7-0.6-2.9v-6h10.4c1,0,1.9,0.4,2.5,1.2c0.6,0.8,1,1.8,1.3,3.1
		c0,0.1,0.1,0.8,0.2,1.8c0.1,1.1,0.3,2.5,0.6,4.2c0.3,1.7,0.6,3.6,0.9,5.8c0.3,2.1,0.6,4.3,1,6.5c0.8,5.2,1.6,11.1,2.6,17.7
		c1-6.4,2-12,2.8-17.1c0.3-2.2,0.7-4.3,1-6.4c0.3-2.1,0.7-4,1-5.7s0.6-3.1,0.7-4.1c0.2-1.1,0.3-1.7,0.4-1.9c0.4-1.8,0.9-3.1,1.4-3.9
		c0.5-0.8,1.6-1.2,3.4-1.2H310.4z"/>
	<path class="st0" d="M328.7,35.6c0,1.4,0.6,2.7,1.8,3.8c1.2,1.2,2.7,2.3,4.6,3.5c1.8,1.2,3.8,2.4,6,3.6c2.2,1.3,4.2,2.7,6,4.3
		c1.8,1.6,3.3,3.4,4.6,5.5c1.2,2.1,1.8,4.5,1.8,7.3v12c0,2.7-0.5,5-1.6,7s-2.4,3.6-4.2,4.9c-1.7,1.3-3.8,2.3-6.1,2.9
		c-2.3,0.6-4.8,0.9-7.3,0.9c-2.6,0-5-0.3-7.3-0.9c-2.3-0.6-4.3-1.6-6-2.9c-1.7-1.3-3.1-2.9-4.1-4.9c-1-2-1.5-4.3-1.5-7v-10h6.5
		c1.9,0,3.3,0.6,4.2,1.7c0.9,1.2,1.4,2.5,1.4,4.1v5.2c0,1.1,0.7,2.1,2,2.9c1.4,0.8,3,1.3,4.8,1.3c0.9,0,1.8-0.1,2.6-0.4
		c0.8-0.3,1.6-0.6,2.2-1.1c0.6-0.5,1.1-0.9,1.5-1.5c0.3-0.5,0.5-1,0.5-1.5V65.1c0-2.3-0.6-4.2-1.8-5.7c-1.2-1.5-2.8-2.8-4.6-4
		c-1.9-1.2-3.8-2.3-6-3.3c-2.1-1-4.1-2.3-6-3.8c-1.9-1.5-3.4-3.3-4.6-5.4c-1.2-2.1-1.8-4.8-1.8-8.1l0.1-7.8c0-2.8,0.5-5.2,1.4-7.2
		c0.9-2,2.2-3.6,3.8-4.9c1.6-1.3,3.5-2.2,5.7-2.8c2.2-0.6,4.5-0.9,7.1-0.9c2.6,0,5,0.3,7.2,1c2.2,0.7,4.1,1.6,5.8,2.9
		c1.6,1.3,2.9,2.9,3.8,4.9c0.9,2,1.4,4.3,1.4,7v9.8h-6.2c-1.7,0-3.2-0.7-4.4-2.1c-1.2-1.4-1.8-2.9-1.8-4.6v-3.2
		c0-1.5-0.6-2.6-1.9-3.4c-1.3-0.8-2.6-1.2-4-1.2c-1.5,0-2.7,0.4-3.8,1.3c-1.1,0.8-1.6,1.8-1.6,2.8V35.6z"/>
	<path class="st0" d="M373.1,66.4v9.5c0,1.4,0.5,2.5,1.6,3.3c1,0.8,2.4,1.2,4,1.2c1.6,0,2.9-0.4,4-1.3c1-0.8,1.6-1.6,1.6-2.2v-1.3
		c0-1.6,0.4-3,1.3-4.1c0.8-1.2,2.2-1.7,4.1-1.7h6.8v6.9c0,2.3-0.5,4.3-1.4,6.1c-0.9,1.7-2.1,3.2-3.7,4.4c-1.6,1.2-3.4,2.1-5.6,2.7
		c-2.2,0.6-4.5,0.9-7,0.9c-2.6,0-5-0.4-7.2-1.2c-2.2-0.8-4.1-1.9-5.7-3.3c-1.6-1.4-2.8-3.2-3.7-5.3c-0.9-2.1-1.4-4.5-1.4-7.1V54.3
		c0-2.7,0.5-5,1.4-7.1c0.9-2.1,2.1-3.9,3.7-5.3c1.6-1.4,3.5-2.5,5.7-3.2s4.6-1.1,7.2-1.1c2.6,0,5,0.4,7.1,1.1c2.2,0.7,4,1.8,5.6,3.2
		c1.6,1.4,2.8,3.2,3.7,5.3c0.9,2.1,1.3,4.5,1.3,7.1v6.8c0,3.5-1.8,5.2-5.3,5.2H373.1z M373.1,58.1h10.8v-4.2c0-1.3-0.2-2.3-0.6-3
		c-0.4-0.8-0.9-1.4-1.5-1.8c-0.6-0.5-1.2-0.8-1.8-0.9c-0.6-0.1-1.1-0.2-1.5-0.2c-0.4,0-0.8,0.1-1.5,0.3c-0.6,0.2-1.2,0.5-1.8,0.9
		c-0.6,0.4-1,1-1.5,1.8c-0.4,0.8-0.6,1.8-0.6,3V58.1z"/>
	<path class="st0" d="M427.4,56.4c-0.9-1.1-1.4-2.4-1.4-3.8c0-1.5-0.6-2.6-1.7-3.2c-1.1-0.6-2.1-0.9-3-0.9c-0.4,0-0.9,0.1-1.5,0.2
		c-0.6,0.1-1.2,0.4-1.7,0.7c-0.5,0.3-1,0.7-1.3,1.3c-0.4,0.5-0.5,1.2-0.5,2v22.4c0,1.1,0.2,2,0.5,2.7c0.3,0.7,0.7,1.2,1.3,1.6
		c0.5,0.4,1.1,0.6,1.6,0.7c0.6,0.1,1.1,0.2,1.7,0.2c1,0,2.1-0.3,3.3-0.9c1.2-0.6,1.7-1.5,1.7-2.8v-0.9c0-1.6,0.5-3,1.4-4.1
		c0.9-1.2,2.4-1.7,4.2-1.7h6.5v6.1c0,2.2-0.4,4.3-1.3,6.2c-0.8,1.9-2,3.5-3.6,4.8c-1.5,1.3-3.4,2.4-5.4,3.1s-4.4,1.1-6.9,1.1
		c-5.2,0-9.4-1.4-12.6-4.3c-3.2-2.9-4.9-7-4.9-12.4V54.5c0-5.4,1.6-9.5,4.9-12.5c3.2-2.9,7.5-4.4,12.6-4.4c2.5,0,4.8,0.4,7,1.3
		c2.1,0.8,3.9,2,5.4,3.4c1.5,1.4,2.7,3,3.5,4.8c0.8,1.8,1.3,3.6,1.3,5.5V58h-6.8C429.7,58,428.3,57.4,427.4,56.4z"/>
	<path class="st0" d="M464.4,80.6c0.4,0,0.8,0,1.1,0.1c0.3,0,0.6,0.2,0.7,0.4c0.2,0.2,0.3,0.6,0.4,1.2c0.1,0.6,0.2,1.4,0.2,2.4v2.1
		c0,2-0.7,3.2-2,3.6c-2.9,0.6-5.4,0.7-7.5,0.3s-3.9-1.2-5.4-2.4c-1.5-1.1-2.6-2.5-3.3-4.1c-0.7-1.6-1.1-3.2-1.1-4.9V48.4h-5.2v-4.6
		c0-2.2,0.4-3.8,1.1-4.6c0.7-0.8,2.1-1.3,4.1-1.3v-4.2v-7v0.6c0-4.6,1-7.8,3-9.5c2-1.7,5.2-2.6,9.5-2.6v11.4v7V38h5.3v3.6
		c0,1.5-0.1,2.7-0.3,3.6c-0.2,0.9-0.5,1.6-0.9,2.1c-0.4,0.5-1,0.8-1.7,1c-0.7,0.2-1.5,0.3-2.5,0.3v27.3c0,1.4,0.3,2.6,0.8,3.6
		C461.4,80.4,462.6,80.8,464.4,80.6z"/>
	<path class="st0" d="M488.5,80.5c0.6,0.4,1.1,0.9,1.6,1.7c0.5,0.8,0.8,1.8,0.8,3.1v5.1h-19.5v-5.2c0-1.3,0.3-2.4,0.8-3.1
		c0.5-0.8,1.1-1.3,1.6-1.7c0.3-0.2,0.5-0.4,0.7-0.7c0.2-0.2,0.3-0.6,0.4-1.1V50.5c0-0.8-0.4-1.4-1.2-1.9c-0.6-0.3-1.1-0.9-1.6-1.7
		c-0.5-0.8-0.7-1.7-0.7-2.9v-6h14c0.8,0,1.3,0.2,1.5,0.6c0.2,0.4,0.4,0.9,0.4,1.4v38.1c0,0.7,0.1,1.2,0.3,1.5
		C487.9,79.9,488.2,80.2,488.5,80.5z M481.2,30.2c-1.7,0-3.2-0.6-4.4-1.8c-1.2-1.2-1.8-2.7-1.8-4.4c0-1.7,0.6-3.1,1.8-4.3
		c1.2-1.2,2.7-1.8,4.4-1.8c1.7,0,3.1,0.6,4.3,1.8c1.2,1.2,1.8,2.7,1.8,4.3c0,1.7-0.6,3.2-1.8,4.4C484.3,29.6,482.8,30.2,481.2,30.2z
		"/>
	<path class="st0" d="M513.8,37.7c2.5,0,4.9,0.4,7.1,1.3s4.1,1.9,5.8,3.3c1.6,1.4,2.9,2.9,3.8,4.7c0.9,1.8,1.4,3.6,1.4,5.5v23.3
		c0,2.2-0.5,4.3-1.4,6.2c-0.9,1.9-2.2,3.5-3.8,4.8c-1.6,1.3-3.6,2.4-5.8,3.1s-4.6,1.1-7.1,1.1c-2.6,0-5-0.3-7.1-0.9
		c-2.2-0.6-4.1-1.6-5.7-2.9c-1.6-1.3-2.9-2.9-3.8-4.9c-0.9-2-1.4-4.3-1.4-7V53.4c0-2.7,0.5-5,1.4-7c0.9-2,2.2-3.6,3.8-4.9
		c1.6-1.3,3.5-2.3,5.7-2.9C508.8,38,511.2,37.7,513.8,37.7z M513.8,80.5c1.9,0,3.3-0.5,4.2-1.6c0.9-1.1,1.4-2.2,1.4-3.4V53.4
		c0-1.2-0.5-2.4-1.4-3.6c-0.9-1.2-2.3-1.8-4.3-1.8c-1.9,0-3.3,0.5-4.2,1.6c-0.9,1-1.4,2.2-1.4,3.4v22.6c0,0.9,0.5,2,1.4,3.1
		C510.5,79.9,511.9,80.5,513.8,80.5z"/>
	<path class="st0" d="M578.8,80.7c0.5,0.4,0.9,1,1.3,1.8c0.3,0.8,0.5,1.8,0.5,3.1v4.8h-10.4c-1.5,0-2.7-0.7-3.6-2.1
		c-0.9-1.4-1.4-3.1-1.4-4.9V56.1c0-2.4-0.4-4.3-1.3-5.7c-0.8-1.3-2.5-2-4.9-2c-1,0-1.8,0.1-2.5,0.4c-0.7,0.2-1.2,0.5-1.6,0.9
		c-0.5,0.4-0.9,0.8-1.3,1.3v27.6c0,0.7,0.1,1.2,0.3,1.5c0.2,0.3,0.5,0.5,0.8,0.7c0.6,0.4,1.1,1,1.6,1.8c0.5,0.8,0.8,1.8,0.8,3.1
		l-0.1,4.8h-19.5v-4.9c0-1.3,0.3-2.4,0.8-3.1c0.5-0.8,1.1-1.3,1.6-1.7c0.3-0.3,0.6-0.5,0.8-0.7c0.2-0.2,0.3-0.7,0.4-1.4V52.2
		c0-1.5-0.1-2.4-0.4-2.9c-0.2-0.5-0.5-0.8-0.9-1c-0.6-0.4-1.1-1-1.6-1.7c-0.5-0.7-0.7-1.7-0.7-3v-5.6h13.9c0.6,0,1,0.1,1.2,0.4
		c0.2,0.2,0.4,0.5,0.6,0.8c0.1,0.3,0.2,0.6,0.3,1c0.8-0.5,1.6-0.9,2.6-1.3c0.8-0.3,1.8-0.7,3-0.9c1.2-0.3,2.5-0.4,4-0.4
		c2.6,0,4.8,0.4,6.6,1.3c1.8,0.9,3.3,2.1,4.5,3.7c1.2,1.6,2,3.5,2.5,5.7c0.5,2.2,0.8,4.7,0.8,7.3v22.9c0,0.6,0.1,1.1,0.3,1.4
		C578.2,80.3,578.5,80.5,578.8,80.7z"/>
</g>
</svg>
